<?xml version="1.0" encoding="utf-8"?>
<!-- Generator: Adobe Illustrator 25.0.1, SVG Export Plug-In . SVG Version: 6.00 Build 0)  -->
<svg version="1.1" id="Layer_1" xmlns="http://www.w3.org/2000/svg" xmlns:xlink="http://www.w3.org/1999/xlink" x="0px" y="0px"
	 viewBox="0 0 221.2 221.2" style="enable-background:new 0 0 221.2 221.2;" xml:space="preserve">
<style type="text/css">
	.st0{fill:#F6F6F6;}
	.st1{fill:#6B6C6C;}
</style>
<g id="Layer_2_1_">
	<g id="Layer_1-2">
		<circle class="st0" cx="110.6" cy="110.6" r="110.5"/>
		<circle class="st1" cx="79.3" cy="56.5" r="10.4"/>
		<path class="st1" d="M149.2,49.7l-6.9-3.5c-1.1-0.5-2.4-0.3-3.2,0.6c-0.2,0.2-0.3,0.4-0.4,0.5l-27.2,46.9l-9.8,16.6
			c0,0.1-0.1,0.2-0.1,0.3l-0.1,0.1c0,0.1-0.1,0.3-0.1,0.4c0,0.1,0,0.1,0,0.2l0,0l-0.1,0.8v58.6c0.1,1.8,1.6,3.3,3.4,3.3h10.4
			c1.8-0.2,3.1-1.7,3-3.5v-56.5c0-1.2,0.3-2.4,0.8-3.5l32.8-56C153,52.6,152.1,51.2,149.2,49.7z"/>
	</g>
</g>
</svg>
